<?xml version="1.0" encoding="utf-8"?>
<!-- Generator: Adobe Illustrator 24.0.0, SVG Export Plug-In . SVG Version: 6.00 Build 0)  -->
<svg version="1.1" id="Layer_1" xmlns="http://www.w3.org/2000/svg" xmlns:xlink="http://www.w3.org/1999/xlink" x="0px" y="0px"
	 viewBox="0 0 256 256" enable-background="new 0 0 256 256" xml:space="preserve">
<g>
	<path fill="#63BCE7" d="M154.331,216.871H70.764c-9.104,0-16.484-7.38-16.484-16.484V29.712c0-9.104,7.38-16.484,16.484-16.484
		h83.567c9.104,0,16.484,7.38,16.484,16.484v170.675C170.815,209.491,163.435,216.871,154.331,216.871z"/>
	<g>
		<path fill="#6377E7" d="M68.946,200.387V29.712c0-9.104,7.38-16.484,16.484-16.484H70.764c-9.104,0-16.484,7.38-16.484,16.484
			v170.674c0,9.104,7.38,16.484,16.484,16.484H85.43C76.326,216.871,68.946,209.491,68.946,200.387z"/>
	</g>
	<path fill="#CECECE" d="M54.279,200.391c0,9.102,7.378,16.48,16.48,16.48h83.576c9.102,0,16.48-7.378,16.48-16.48v-9.738H54.279
		V200.391z"/>
	<path fill="#AFAFAF" d="M68.946,200.391v-9.738H54.279v9.738c0,9.102,7.378,16.48,16.48,16.48h14.667
		C76.324,216.871,68.946,209.492,68.946,200.391z"/>
	<path fill="#CECECE" d="M170.815,29.708c0-9.102-7.378-16.48-16.48-16.48H70.759c-9.102,0-16.48,7.378-16.48,16.48v9.738h116.536
		V29.708z"/>
	<path fill="#AFAFAF" d="M85.426,13.228H70.759c-9.102,0-16.48,7.378-16.48,16.48v9.738h14.667v-9.738
		C68.946,20.606,76.324,13.228,85.426,13.228z"/>
	<rect x="91.695" y="23.394" fill="#F8AF23" width="41.2" height="5.886"/>
	<circle fill="#F8AF23" cx="112.723" cy="204.217" r="5.003"/>
	<path fill="#F8AF23" d="M170.797,52.738v51.352l-10.108-11.858c-4.191-4.917-11.643-5.511-16.56-1.32l0,0
		c-4.917,4.191-5.511,11.643-1.32,16.56l22.994,26.976c0,0-6.863,28.962,11.227,45.51h51.142l-4.534-62.216
		c-0.544-5.746-4.087-10.606-7.69-14.626L170.797,52.738z"/>
	<g>
		<path fill="#F8D323" d="M223.639,117.742c-0.544-5.746-4.087-10.606-7.69-14.626l-45.152-50.377v16.364l30.485,34.013
			c3.603,4.02,7.146,8.88,7.69,14.626l4.534,62.216h14.667L223.639,117.742z"/>
	</g>
	<rect x="159.105" y="179.958" fill="#707070" width="79.502" height="36.913"/>
	<g>
		<rect x="223.94" y="179.958" fill="#9E9E9E" width="14.667" height="36.913"/>
	</g>
	<rect x="159.105" y="216.871" fill="#CECECE" width="79.502" height="14.928"/>
	<g>
		<rect x="223.94" y="216.871" fill="#E2E2E2" width="14.667" height="14.928"/>
	</g>
	<circle fill="#63BCE7" cx="177.946" cy="198.415" r="6.763"/>
	<polygon fill="#CECECE" points="126.815,111.286 17.393,111.286 28.643,84.353 115.565,84.353 	"/>
	<g>
		<polygon fill="#AFAFAF" points="28.643,84.353 17.393,111.286 32.06,111.286 43.31,84.353 		"/>
	</g>
	<rect x="29.609" y="111.286" fill="#F46275" width="84.99" height="79.367"/>
	<g>
		<rect x="29.609" y="111.286" fill="#F43075" width="14.667" height="79.367"/>
	</g>
	<path fill="#63BCE7" d="M72.104,139.3L72.104,139.3c-9.069,0-16.421,7.352-16.421,16.421v34.931h32.842v-34.931
		C88.525,146.652,81.173,139.3,72.104,139.3z"/>
	<g>
		<path fill="#F87023" d="M29.608,126.669L29.608,126.669c-3.912,0-7.083-3.171-7.083-7.083v-8.301H36.69v8.301
			C36.69,123.498,33.519,126.669,29.608,126.669z"/>
		<path fill="#F8AF23" d="M43.773,126.669L43.773,126.669c-3.912,0-7.083-3.171-7.083-7.083v-8.301h14.165v8.301
			C50.856,123.498,47.685,126.669,43.773,126.669z"/>
		<path fill="#F8AF23" d="M57.939,126.669L57.939,126.669c-3.912,0-7.083-3.171-7.083-7.083v-8.301h14.165v8.301
			C65.021,123.498,61.85,126.669,57.939,126.669z"/>
		<path fill="#F8AF23" d="M72.104,126.669L72.104,126.669c-3.912,0-7.083-3.171-7.083-7.083v-8.301h14.165v8.301
			C79.187,123.498,76.016,126.669,72.104,126.669z"/>
		<path fill="#F8AF23" d="M86.269,126.669L86.269,126.669c-3.912,0-7.083-3.171-7.083-7.083v-8.301h14.165v8.301
			C93.352,123.498,90.181,126.669,86.269,126.669z"/>
		<path fill="#F8AF23" d="M100.435,126.669L100.435,126.669c-3.912,0-7.083-3.171-7.083-7.083v-8.301h14.165v8.301
			C107.517,123.498,104.346,126.669,100.435,126.669z"/>
		<path fill="#F8AF23" d="M114.6,126.669L114.6,126.669c-3.912,0-7.083-3.171-7.083-7.083v-8.301h14.165v8.301
			C121.683,123.498,118.512,126.669,114.6,126.669z"/>
	</g>
	<circle fill="#F8AF23" cx="72.104" cy="74.119" r="25.375"/>
	<g>
		<path fill="#3F3679" d="M27.323,241.272H9.32c-0.829,0-1.5,0.671-1.5,1.5s0.671,1.5,1.5,1.5h18.003c0.829,0,1.5-0.671,1.5-1.5
			S28.152,241.272,27.323,241.272z"/>
		<path fill="#3F3679" d="M246.68,241.272h-18.003c-0.829,0-1.5,0.671-1.5,1.5s0.671,1.5,1.5,1.5h18.003c0.829,0,1.5-0.671,1.5-1.5
			S247.509,241.272,246.68,241.272z"/>
		<path fill="#3F3679" d="M218.479,241.272H37.521c-0.829,0-1.5,0.671-1.5,1.5s0.671,1.5,1.5,1.5h180.959c0.829,0,1.5-0.671,1.5-1.5
			S219.308,241.272,218.479,241.272z"/>
		<path fill="#3F3679" d="M9.32,233.299h149.785h79.502h8.073c0.829,0,1.5-0.671,1.5-1.5s-0.671-1.5-1.5-1.5h-6.573v-13.428v-36.913
			c0-0.829-0.671-1.5-1.5-1.5h-9.04l-4.435-60.857c-0.608-6.428-4.63-11.652-8.066-15.486l-44.751-49.93V39.446v-9.734v-0.004
			c0-9.914-8.066-17.98-17.98-17.98h-0.004H70.759c-9.914,0-17.98,8.066-17.98,17.98v9.739v16.024
			c-4.669,4.837-7.55,11.411-7.55,18.648c0,3.057,0.52,5.993,1.465,8.734H28.643c-0.605,0-1.151,0.364-1.384,0.922l-11.25,26.933
			c-0.193,0.463-0.142,0.992,0.136,1.41c0.278,0.417,0.747,0.668,1.249,0.668h3.632v6.8c0,4.221,3.065,7.731,7.084,8.443v62.623
			c0,0.829,0.671,1.5,1.5,1.5h23.17v8.234v0.004c0,9.914,8.066,17.98,17.98,17.98c0,0,0.001,0,0.001,0c0.001,0,0.002,0,0.003,0
			h83.567c1.102,0,2.198-0.106,3.274-0.304v12.233H9.32c-0.829,0-1.5,0.671-1.5,1.5S8.491,233.299,9.32,233.299z M237.107,215.371
			h-76.502v-33.913h16.425h51.142h8.935V215.371z M106.018,119.586c0,3.079-2.504,5.583-5.583,5.583
			c-3.078,0-5.583-2.504-5.583-5.583v-6.8h11.166V119.586z M91.852,119.586c0,3.079-2.504,5.583-5.583,5.583
			c-3.079,0-5.583-2.504-5.583-5.583v-6.8h11.166V119.586z M77.687,119.586c0,3.079-2.504,5.583-5.583,5.583
			s-5.583-2.504-5.583-5.583v-6.8h11.165V119.586z M63.521,119.586c0,3.079-2.504,5.583-5.583,5.583
			c-3.078,0-5.583-2.504-5.583-5.583v-6.8h11.166V119.586z M49.356,119.586c0,3.079-2.504,5.583-5.583,5.583
			c-3.078,0-5.583-2.504-5.583-5.583v-6.8h11.166V119.586z M109.018,112.786h11.165v6.8c0,3.079-2.504,5.583-5.583,5.583
			s-5.583-2.504-5.583-5.583V112.786z M116.099,128.029c4.019-0.712,7.083-4.223,7.083-8.443v-6.8h3.632
			c0.502,0,0.97-0.251,1.249-0.668c0.278-0.417,0.329-0.947,0.136-1.41l-11.25-26.933c-0.233-0.558-0.779-0.922-1.384-0.922H97.514
			c0.945-2.74,1.465-5.677,1.465-8.734c0-14.819-12.056-26.875-26.875-26.875c-6.137,0-11.796,2.072-16.325,5.547V40.946h113.536
			V52.62c-0.003,0.04-0.018,0.077-0.018,0.118v47.28l-7.466-8.759c-4.738-5.559-13.115-6.227-18.675-1.488
			c-5.559,4.738-6.227,13.116-1.488,18.675l22.514,26.413c-0.426,2.121-1.503,8.435-1.046,16.228
			c0.489,8.341,2.622,15.7,6.239,21.77c-0.035,0.127-0.06,0.258-0.06,0.396v5.207h-10.21c-0.829,0-1.5,0.671-1.5,1.5v9.194h-41.506
			V128.029z M173.458,178.458h-1.143V177.1C172.686,177.562,173.065,178.016,173.458,178.458z M214.832,104.117
			c3.129,3.491,6.788,8.21,7.311,13.734l4.417,60.607h-48.938c-16.685-15.814-10.423-43.386-10.357-43.665
			c0.109-0.465-0.009-0.955-0.318-1.318l-22.994-26.976c-3.665-4.3-3.149-10.78,1.151-14.445c4.299-3.665,10.78-3.149,14.446,1.151
			l10.107,11.858l19.193,22.517c0.297,0.348,0.718,0.527,1.142,0.527c0.344,0,0.69-0.118,0.973-0.358
			c0.63-0.538,0.706-1.484,0.168-2.115l-18.816-22.075v-46.88L214.832,104.117z M55.779,29.708c0-8.26,6.72-14.98,14.98-14.98
			h83.571c8.262,0,14.984,6.722,14.984,14.984v8.234H55.779V29.708z M72.104,50.244c13.165,0,23.875,10.71,23.875,23.875
			s-10.71,23.875-23.875,23.875s-23.875-10.71-23.875-23.875S58.939,50.244,72.104,50.244z M29.642,85.853h18.289
			c4.365,8.955,13.559,15.141,24.173,15.141s19.809-6.186,24.173-15.141h18.289l9.997,23.933h-2.88h-14.165H93.352H79.187H65.021
			H50.856H36.69H22.525h-2.88L29.642,85.853z M24.025,119.586v-6.8H35.19v6.8c0,3.079-2.504,5.583-5.583,5.583
			C26.529,125.169,24.025,122.665,24.025,119.586z M31.109,128.029c2.31-0.41,4.304-1.74,5.582-3.604
			c1.548,2.259,4.144,3.744,7.083,3.744c2.939,0,5.535-1.486,7.083-3.744c1.548,2.259,4.144,3.744,7.083,3.744
			c2.939,0,5.535-1.486,7.083-3.744c1.548,2.259,4.144,3.744,7.083,3.744s5.535-1.486,7.083-3.744
			c1.548,2.259,4.144,3.744,7.083,3.744c2.938,0,5.535-1.486,7.083-3.744c1.548,2.259,4.144,3.744,7.083,3.744
			c2.939,0,5.535-1.486,7.083-3.744c1.278,1.865,3.272,3.195,5.582,3.604v61.124H90.025v-33.431c0-9.882-8.039-17.921-17.921-17.921
			s-17.921,8.039-17.921,17.921v33.431H31.109V128.029z M87.025,189.152H57.183v-33.431c0-8.228,6.693-14.921,14.921-14.921
			s14.921,6.693,14.921,14.921V189.152z M70.764,215.371c-8.262,0-14.984-6.722-14.984-14.984v-8.234h32.746h26.074h43.006v22.853
			c-1.071,0.239-2.168,0.366-3.274,0.366H70.764z M160.605,218.371h76.502v11.928h-76.502V218.371z"/>
		<path fill="#3F3679" d="M132.895,21.894h-41.2c-0.829,0-1.5,0.671-1.5,1.5v5.886c0,0.829,0.671,1.5,1.5,1.5h41.2
			c0.829,0,1.5-0.671,1.5-1.5v-5.886C134.395,22.565,133.723,21.894,132.895,21.894z M131.395,27.78h-38.2v-2.886h38.2V27.78z"/>
		<path fill="#3F3679" d="M112.723,197.714c-3.586,0-6.503,2.917-6.503,6.503s2.917,6.503,6.503,6.503s6.503-2.917,6.503-6.503
			S116.309,197.714,112.723,197.714z M112.723,207.72c-1.932,0-3.503-1.571-3.503-3.503s1.571-3.503,3.503-3.503
			s3.503,1.571,3.503,3.503S114.655,207.72,112.723,207.72z"/>
		<path fill="#3F3679" d="M177.946,190.152c-4.556,0-8.263,3.707-8.263,8.263s3.707,8.263,8.263,8.263s8.263-3.707,8.263-8.263
			S182.502,190.152,177.946,190.152z M177.946,203.677c-2.902,0-5.263-2.361-5.263-5.263s2.361-5.263,5.263-5.263
			s5.263,2.361,5.263,5.263S180.848,203.677,177.946,203.677z"/>
	</g>
	<g>
		<path fill="#3F3679" d="M85.292,74.103v9.051c0,0.705-0.264,1.317-0.793,1.835c-0.529,0.519-1.156,0.778-1.882,0.778h-7.963v6.376
			c0,0.726-0.259,1.343-0.777,1.851c-0.519,0.508-1.131,0.762-1.836,0.762c-0.746,0-1.379-0.254-1.897-0.762
			c-0.519-0.508-0.778-1.125-0.778-1.851v-6.438h-7.9c-0.705,0-1.317-0.254-1.835-0.762c-0.519-0.508-0.778-1.125-0.778-1.851
			c0-0.725,0.254-1.343,0.762-1.851c0.508-0.508,1.125-0.762,1.851-0.762h18.475v-3.763H61.529c-0.726,0-1.343-0.249-1.85-0.747
			c-0.509-0.497-0.762-1.12-0.762-1.866v-9.02c0-0.726,0.254-1.343,0.762-1.851c0.508-0.508,1.124-0.762,1.85-0.762h7.838v-6.376
			c0-0.705,0.244-1.317,0.731-1.836c0.487-0.518,1.145-0.777,1.975-0.777c0.705,0,1.311,0.254,1.82,0.762
			c0.508,0.508,0.762,1.125,0.762,1.851v6.376h8.025c0.725,0,1.353,0.259,1.882,0.777c0.529,0.519,0.793,1.131,0.793,1.836
			c0,0.726-0.264,1.353-0.793,1.882c-0.529,0.529-1.156,0.793-1.882,0.793H64.204v3.732h18.413c0.725,0,1.353,0.26,1.882,0.778
			C85.027,72.787,85.292,73.398,85.292,74.103z"/>
	</g>
</g>
</svg>
